<svg xmlns="http://www.w3.org/2000/svg" width="65.468" height="50.921"><g fill="#889099"><path d="M63.737 50.595a.529.529 0 0 1 0-.416.537.537 0 0 1 .292-.281.573.573 0 0 1 .23-.04h-.007a.557.557 0 0 1 .2.04.569.569 0 0 1 .175.113.563.563 0 0 1 .118.168.522.522 0 0 1 0 .416.567.567 0 0 1-.118.169.587.587 0 0 1-.175.113.527.527 0 0 1-.213.045.561.561 0 0 1-.502-.327Zm-35.58.2c-1.382 0-1.866-.742-1.866-1.989v-2.47h-1.09v-1.068h1.067v-1.63h1.181v1.63h1.922l.012 1.067h-1.911v2.451c0 .539.213.9.775.9a2.168 2.168 0 0 0 1.034-.3l.337 1a2.742 2.742 0 0 1-1.452.416Zm-8.542-.719.563-.911a2.864 2.864 0 0 0 1.787.563c.8 0 1.226-.237 1.226-.652 0-.3-.3-.472-.945-.562l-.562-.078c-1.2-.169-1.855-.708-1.855-1.585 0-1.068.888-1.72 2.248-1.72a4.02 4.02 0 0 1 2.191.562l-.517.944a3.464 3.464 0 0 0-1.686-.461c-.641 0-1.023.27-1.023.63s.4.461.911.528l.562.078c1.169.171 1.876.588 1.876 1.61s-.9 1.753-2.451 1.753h-.109a3.877 3.877 0 0 1-2.216-.696Zm21.713-.1a2.714 2.714 0 0 1-.812-2.038v-.017a2.713 2.713 0 0 1 2.866-2.811 2.807 2.807 0 0 1 1.933.641l-.562.944a2.356 2.356 0 0 0-1.4-.483 1.725 1.725 0 0 0 0 3.439 2.356 2.356 0 0 0 1.4-.483l.562.942a2.807 2.807 0 0 1-1.933.641h-.154a2.715 2.715 0 0 1-1.9-.769Zm-8.237.777a2.81 2.81 0 1 1-.079-5.62l.017.011a2.555 2.555 0 0 1 2.552 2.811v.449h-3.996a1.49 1.49 0 0 0 1.606 1.315 2.558 2.558 0 0 0 1.562-.562l.563.865a3.264 3.264 0 0 1-2.064.735q-.082 0-.161-.004Zm26.4 0a2.81 2.81 0 0 1 0-5.62 2.038 2.038 0 0 1 1.686.787v-2.81h1.114v7.508h-1.123v-.652a2.037 2.037 0 0 1-1.61.788Zm-10.875 0a2.81 2.81 0 0 1 0-5.62 2.04 2.04 0 0 1 1.675.787v-.652h1.168v5.35h-1.168v-.652a2.04 2.04 0 0 1-1.611.788Zm-32.96 0a2.81 2.81 0 0 1 0-5.62 2.039 2.039 0 0 1 1.686.787v-.652h1.169v5.35h-1.177v-.652a2.038 2.038 0 0 1-1.61.788Zm-4.926-3.08c0-.91-.382-1.416-1.18-1.416a1.263 1.263 0 0 0-1.314 1.428v2.978H7.055v-2.99c0-.91-.393-1.416-1.169-1.416a1.259 1.259 0 0 0-1.315 1.428v2.955h-1.18v-5.372H4.56v.663a1.775 1.775 0 0 1 1.573-.8 1.971 1.971 0 0 1 1.776.955 2.082 2.082 0 0 1 1.888-.955 2 2 0 0 1 2.113 2.138v3.371l-1.18.023Zm42.273 2.967v-5.372h1.158v.652a1.583 1.583 0 0 1 1.416-.787l-.023-.023a2.492 2.492 0 0 1 .832.146l-.359 1.124a1.9 1.9 0 0 0-.731-.135c-.742 0-1.124.495-1.124 1.382v3.013Zm-16.235 0v-5.372h1.157v.652a1.584 1.584 0 0 1 1.417-.787l-.023-.023a2.5 2.5 0 0 1 .832.146l-.36 1.125a1.9 1.9 0 0 0-.731-.135c-.742 0-1.124.495-1.124 1.382v3.012Z"/><path d="M25.005 20.238a20.2 20.2 0 0 1 7.727-15.91 20.231 20.231 0 1 0 0 31.814 20.2 20.2 0 0 1-7.727-15.9Z" opacity=".4"/><path data-name="Shape" d="M65.469 20.237a20.231 20.231 0 0 1-32.736 15.904 20.231 20.231 0 0 0 7.73-15.907 20.231 20.231 0 0 0-7.73-15.907 20.231 20.231 0 0 1 32.736 15.9Z"/><path data-name="Combined Shape" d="M32.913 36.666a20.5 20.5 0 0 1 0-32.5 20.466 20.466 0 0 1 8 16.249 20.466 20.466 0 0 1-8 16.251Z" opacity=".65"/><path data-name="Shape" d="m64.715 32.183-.22.511h-.151l-.219-.511v.587h-.146v-.787h.18l.236.562.235-.562h.2v.787l-.115.005Zm-1.299.587v-.652h-.286v-.135h.669v.135h-.264v.652Z"/></g></svg>