<svg xmlns="http://www.w3.org/2000/svg" width="54.002" height="53.95"><defs><clipPath id="a"><path d="M0 0v22.1h53.965V0Z" transform="translate(0 .058)" fill="none"/></clipPath></defs><path d="M.008 0v53.95h53.949V0Z" fill="#889099"/><path data-name="bluebox-55x54-a" d="M0 16.733v22.1h53.965v-22.1Z" fill="none"/><g data-name="Clipped" clip-path="url(#a)" transform="translate(0 16.675)"><path data-name="Shape" d="M33.657 22.158 32.6 20.785v1.373h-4.182v-2.395a5.787 5.787 0 0 1-2.025.358h.063v2.037h-6l-.863-1.226-.839 1.226h-9.59v-9.429h9.626l.844 1.208.854-1.208h33.477v8.846a3.741 3.741 0 0 1-.691.332 4.259 4.259 0 0 1-1.453.248Zm13.7-12.67-.881-1.4v1.4h-5.835l-.517-1.354h-.962l-.508 1.354h-3.479a5.524 5.524 0 0 1-.987-.087 4.718 4.718 0 0 1-.615-.153 4.431 4.431 0 0 1-.485-.19 3.906 3.906 0 0 1-.464-.257v.686H26.81l-1.053-1.373v1.371H4.723L4.2 8.132h-.957l-.509 1.353H0V4.091L1.726.058h3.859l.855 1.927V.058h4.731l.563 1.644.555-1.644h20.334v.737a4.071 4.071 0 0 1 .559-.311 4.5 4.5 0 0 1 .517-.2 4.816 4.816 0 0 1 .7-.162 5.675 5.675 0 0 1 .876-.064h6.231l.844 1.906V.058h3.769l.962 1.508V.058H51.4v9.427Z" fill="#323642"/></g><path data-name="Shape" d="M48.598 37.296v-1.272h3.261a.606.606 0 0 0 .626-.644.589.589 0 0 0-.626-.618h-1.463a1.766 1.766 0 0 1-1.98-1.843 1.969 1.969 0 0 1 2.189-1.981h3.28l-.564 1.29h-2.76a.6.6 0 0 0-.617.635.579.579 0 0 0 .617.609h1.472a1.731 1.731 0 0 1 1.97 1.8 1.978 1.978 0 0 1-2.189 2.026Zm-6.048 0v-1.272h3.26a.606.606 0 0 0 .626-.644.589.589 0 0 0-.626-.618h-1.466a1.766 1.766 0 0 1-1.977-1.844 1.97 1.97 0 0 1 2.189-1.98h3.28l-.563 1.29h-2.762a.6.6 0 0 0-.617.635.579.579 0 0 0 .617.609h1.472a1.731 1.731 0 0 1 1.971 1.8 1.978 1.978 0 0 1-2.19 2.026Zm-6.013 0v-6.358h5.086v1.29h-3.56v1.235h3.481v1.275h-3.481v1.277h3.559v1.281Zm-2.606 0-1.9-2.289h-.717v2.289h-1.525v-6.358h3.455a1.988 1.988 0 0 1 2.2 2.016 1.971 1.971 0 0 1-1.725 2l2.116 2.344Zm-10.662 0v-6.358h3.5a2.032 2.032 0 0 1 2.2 2.125 2.082 2.082 0 0 1-2.253 2.134h-1.922v2.1Zm-2.244 0-1.562-2.044-1.562 2.044h-1.857l2.538-3.179-2.543-3.179h1.905l1.555 2.016 1.563-2.016h1.852L20.38 34.09l2.552 3.206Zm-10.381 0v-6.358h5.086v1.29h-3.56v1.235h3.474v1.275H12.17v1.277h3.56v1.281Zm37.327-12.671-2.434-3.806-.319-.526.019.526v3.806h-1.49v-6.358h1.87l2.381 3.678.281.473-.018-.473v-3.678h1.49v6.358Zm-6.294 0-.55-1.363h-3.019l-.535 1.363h-1.626l2.723-6.358h2.008l2.715 6.358Zm-6.657 0a2.824 2.824 0 0 1-2.933-3.124v-.109a2.871 2.871 0 0 1 3.033-3.125h1.78v1.372h-1.652a1.582 1.582 0 0 0-1.644 1.762v.091a1.577 1.577 0 0 0 1.662 1.775h.461l-.626 1.353Zm-5.422 0v-6.358h1.529v6.358Zm-2.38 0-1.9-2.289h-.717v2.289h-1.524v-6.358h3.45a1.989 1.989 0 0 1 2.2 2.017 1.971 1.971 0 0 1-1.726 2l2.116 2.341Zm-10.345 0v-6.358h5.086v1.29h-3.558v1.235h3.478v1.275h-3.478v1.259h3.559v1.3Zm-2.733 0v-4.351l.037-1.67-1.761 6.021h-1.381l-1.762-6.058.037 1.716v4.342H7.827v-6.358h2.679l1.221 4.5 1.206-4.5h2.688v6.358Zm-8.383 0-.544-1.363H2.189l-.537 1.363H.027l2.725-6.358h2.007l2.716 6.358Z" fill="#889099"/></svg>