<svg xmlns="http://www.w3.org/2000/svg" width="78.588" height="23.691"><path d="M21.073 16.322c-.146 0-.385 0-.656-.01a9.594 9.594 0 0 1-1.068-.092 12.687 12.687 0 0 1-1.278-.249 6.471 6.471 0 0 1-1.278-.455L20.386.5l3.218-.5-1.287 5.33a5.04 5.04 0 0 1 .83-.289 3.805 3.805 0 0 1 .894-.1 3.949 3.949 0 0 1 1.723.351 3.5 3.5 0 0 1 1.207.951 4.011 4.011 0 0 1 .7 1.4 6.421 6.421 0 0 1 .228 1.735 6.958 6.958 0 0 1-.529 2.7 7.008 7.008 0 0 1-1.444 2.211 6.8 6.8 0 0 1-2.16 1.486 6.628 6.628 0 0 1-2.693.547ZM23.274 7.5a3.841 3.841 0 0 0-.758.1 1.917 1.917 0 0 0-.842.435l-1.37 5.665c.081.013.153.027.218.04a1.591 1.591 0 0 0 .2.032 2.208 2.208 0 0 0 .25.012h.374a2.843 2.843 0 0 0 1.371-.351 3.615 3.615 0 0 0 1.112-.94 4.749 4.749 0 0 0 .736-1.334 4.521 4.521 0 0 0 .271-1.55 3.039 3.039 0 0 0-.333-1.549 1.311 1.311 0 0 0-1.229-.56Zm7.968 8.534h-3.074l2.6-10.867h3.1l-2.626 10.866Zm1.5-12.19a1.922 1.922 0 0 1-1.163-.382 1.355 1.355 0 0 1-.521-1.168 1.945 1.945 0 0 1 .176-.815 2.176 2.176 0 0 1 .464-.662 2.313 2.313 0 0 1 .67-.444 2.082 2.082 0 0 1 .826-.165 1.919 1.919 0 0 1 1.162.382 1.363 1.363 0 0 1 .519 1.167 1.918 1.918 0 0 1-.177.817 2.148 2.148 0 0 1-.466.662 2.279 2.279 0 0 1-.675.443 2.012 2.012 0 0 1-.82.165Zm3.81-1.38 3.219-.5-.791 3.2h3.448l-.623 2.52h-3.427l-.913 3.8a4.28 4.28 0 0 0-.145.887 1.617 1.617 0 0 0 .1.713.9.9 0 0 0 .447.464 2.056 2.056 0 0 0 .924.166 4.9 4.9 0 0 0 .967-.094 6.787 6.787 0 0 0 .944-.258l.229 2.357a11.072 11.072 0 0 1-1.35.392 7.843 7.843 0 0 1-1.724.164 4.791 4.791 0 0 1-2.223-.421 2.465 2.465 0 0 1-1.119-1.155 3.658 3.658 0 0 1-.295-1.682 10.884 10.884 0 0 1 .29-2l2.042-8.553Zm5.741 9.232a7.6 7.6 0 0 1 .457-2.646 6.5 6.5 0 0 1 1.31-2.174 6.123 6.123 0 0 1 2.066-1.462 6.624 6.624 0 0 1 2.709-.538 7.181 7.181 0 0 1 1.671.176 6.769 6.769 0 0 1 1.341.464l-1.06 2.4c-.277-.112-.565-.21-.862-.3a3.776 3.776 0 0 0-1.089-.14 3.053 3.053 0 0 0-2.443 1.057 4.209 4.209 0 0 0-.9 2.832 2.9 2.9 0 0 0 .458 1.7 1.919 1.919 0 0 0 1.682.65 5.42 5.42 0 0 0 1.16-.12 5.714 5.714 0 0 0 1-.31l.229 2.458a11.015 11.015 0 0 1-1.288.4 7.183 7.183 0 0 1-1.683.173 5.7 5.7 0 0 1-2.18-.371 4.154 4.154 0 0 1-1.474-1 3.773 3.773 0 0 1-.843-1.475 6 6 0 0 1-.261-1.774Zm13.653 4.626a5.077 5.077 0 0 1-1.911-.33 3.558 3.558 0 0 1-1.339-.93 4.041 4.041 0 0 1-.8-1.415 5.7 5.7 0 0 1-.267-1.805 8 8 0 0 1 .4-2.481 7.044 7.044 0 0 1 1.2-2.23 6.394 6.394 0 0 1 1.929-1.625 5.354 5.354 0 0 1 2.615-.629 5.111 5.111 0 0 1 1.9.331 3.576 3.576 0 0 1 1.349.93 4.034 4.034 0 0 1 .8 1.416 5.716 5.716 0 0 1 .27 1.806 8.255 8.255 0 0 1-.393 2.481 7.169 7.169 0 0 1-1.164 2.23 6.126 6.126 0 0 1-1.92 1.622 5.517 5.517 0 0 1-2.669.629Zm1.537-8.845a1.957 1.957 0 0 0-1.205.4 3.417 3.417 0 0 0-.871.992 4.928 4.928 0 0 0-.531 1.308 5.656 5.656 0 0 0-.175 1.353 3.3 3.3 0 0 0 .328 1.612 1.279 1.279 0 0 0 1.205.578 1.947 1.947 0 0 0 1.205-.393 3.4 3.4 0 0 0 .871-.991 4.9 4.9 0 0 0 .532-1.312 5.726 5.726 0 0 0 .176-1.353 3.273 3.273 0 0 0-.333-1.612 1.275 1.275 0 0 0-1.202-.582Zm7.959 8.557h-3.076l2.6-10.867h3.1l-2.624 10.866Zm1.493-12.19a1.921 1.921 0 0 1-1.162-.382 1.358 1.358 0 0 1-.521-1.168 1.945 1.945 0 0 1 .177-.815 2.159 2.159 0 0 1 .469-.662 2.286 2.286 0 0 1 .675-.444 2.056 2.056 0 0 1 .819-.165 1.922 1.922 0 0 1 1.163.382 1.361 1.361 0 0 1 .52 1.167 1.957 1.957 0 0 1-.178.817 2.143 2.143 0 0 1-.465.662 2.321 2.321 0 0 1-.674.443 2.027 2.027 0 0 1-.823.165Zm3.336 1.818c.233-.068.494-.149.777-.238s.6-.171.957-.246a11.8 11.8 0 0 1 1.184-.187 13.436 13.436 0 0 1 1.484-.073 3.718 3.718 0 0 1 3.355 1.406 4.773 4.773 0 0 1 .323 3.842l-1.414 5.868h-3.093l1.37-5.744c.083-.359.149-.706.2-1.044a2.46 2.46 0 0 0-.011-.887 1.059 1.059 0 0 0-.383-.62 1.488 1.488 0 0 0-.926-.237 6.281 6.281 0 0 0-1.225.126l-2.016 8.406h-3.095l2.513-10.372ZM35.707 23.601h-.6c-.02-.179-.037-.355-.056-.554s-.035-.373-.055-.536h-1.861l-.6 1.089h-.656c.461-.827.914-1.593 1.345-2.277s.867-1.348 1.295-1.966h.585c.064.32.121.632.169.928.054.327.1.658.15.982.05.348.1.715.142 1.091.041.349.086.743.141 1.242Zm-1.034-3.565c-.143.207-.323.478-.536.8s-.464.741-.725 1.191h1.525a30.211 30.211 0 0 0-.264-1.991Zm3.214 3.656a1.968 1.968 0 0 1-.7-.116 1.351 1.351 0 0 1-.508-.331 1.372 1.372 0 0 1-.3-.517 2.142 2.142 0 0 1-.11-.683 3.17 3.17 0 0 1 .175-1.053 2.816 2.816 0 0 1 .5-.887 2.441 2.441 0 0 1 .777-.616 2.222 2.222 0 0 1 1.016-.23 2.432 2.432 0 0 1 .766.1 1.763 1.763 0 0 1 .409.184l-.243.487a1.771 1.771 0 0 0-.388-.171 1.806 1.806 0 0 0-.575-.086 1.473 1.473 0 0 0-.763.2 1.912 1.912 0 0 0-.572.514 2.361 2.361 0 0 0-.357.71 2.613 2.613 0 0 0-.123.781q0 1.194 1.04 1.194a2.32 2.32 0 0 0 .4-.031 2.731 2.731 0 0 0 .311-.07 1.635 1.635 0 0 0 .24-.089l.185-.086.074.514a1.6 1.6 0 0 1-.194.092 2.46 2.46 0 0 1-.28.092 2.983 2.983 0 0 1-.357.07 3.025 3.025 0 0 1-.418.027Zm3.458 0a1.968 1.968 0 0 1-.7-.116 1.351 1.351 0 0 1-.508-.331 1.372 1.372 0 0 1-.3-.517 2.142 2.142 0 0 1-.11-.683 3.17 3.17 0 0 1 .175-1.053 2.816 2.816 0 0 1 .5-.887 2.441 2.441 0 0 1 .777-.616 2.222 2.222 0 0 1 1.016-.23 2.432 2.432 0 0 1 .766.1 1.763 1.763 0 0 1 .409.184l-.243.487a1.771 1.771 0 0 0-.388-.171 1.806 1.806 0 0 0-.575-.086 1.473 1.473 0 0 0-.763.2 1.912 1.912 0 0 0-.572.514 2.361 2.361 0 0 0-.357.71 2.613 2.613 0 0 0-.123.781q0 1.194 1.04 1.194a2.32 2.32 0 0 0 .4-.031 2.731 2.731 0 0 0 .311-.07 1.635 1.635 0 0 0 .24-.089l.185-.086.074.514a1.6 1.6 0 0 1-.194.092 2.46 2.46 0 0 1-.28.092 2.983 2.983 0 0 1-.357.07 3.025 3.025 0 0 1-.418.027Zm1.653-.092 1.022-4.243h2.516l-.116.5h-1.922l-.308 1.28h1.708l-.117.484h-1.7l-.369 1.483h2.068l-.117.5h-2.665Zm3.815 0h-.6l1.009-4.186a3.376 3.376 0 0 1 .548-.081c.192-.013.376-.019.543-.019a1.874 1.874 0 0 1 1.127.282.963.963 0 0 1 .379.82 1.544 1.544 0 0 1-.157.72 1.354 1.354 0 0 1-.446.5 2.071 2.071 0 0 1-.7.29 3.966 3.966 0 0 1-.9.1h-.425l-.378 1.573Zm1.43-3.786a3.167 3.167 0 0 0-.53.026l-.4 1.684h.388a3.185 3.185 0 0 0 .529-.046 1.573 1.573 0 0 0 .483-.164.977.977 0 0 0 .354-.322.917.917 0 0 0 .139-.529.536.536 0 0 0-.258-.5 1.41 1.41 0 0 0-.705-.149Zm5.216-.457-.117.5h-1.286l-.9 3.747h-.6l.903-3.747h-1.286l.117-.5Zm-.553 4.243 1.022-4.243h2.516l-.116.5h-1.922l-.308 1.28h1.708l-.117.484h-1.7l-.369 1.483h2.068l-.117.5h-2.665Zm4.313.043c-.167 0-.35-.008-.56-.025a3.025 3.025 0 0 1-.529-.086l.991-4.118a3.255 3.255 0 0 1 .547-.08c.2-.012.38-.018.548-.018a2 2 0 0 1 1.414.442 1.58 1.58 0 0 1 .467 1.2 3.124 3.124 0 0 1-.167 1.009 2.36 2.36 0 0 1-.517.861 2.512 2.512 0 0 1-.9.594 3.481 3.481 0 0 1-1.294.221Zm.948-3.829a3.4 3.4 0 0 0-.553.024l-.784 3.276a1.091 1.091 0 0 0 .166.021c.082.007.21.01.382.01a2.286 2.286 0 0 0 .877-.162 1.878 1.878 0 0 0 .661-.454 2.053 2.053 0 0 0 .414-.695 2.543 2.543 0 0 0 .148-.878 1.115 1.115 0 0 0-.314-.842 1.417 1.417 0 0 0-.997-.3Zm6.529 3.786h-.6l.474-1.971h-1.972l-.471 1.971h-.6l1.022-4.243h.6l-.434 1.776h1.976l.43-1.776h.6L64.696 23.6Zm.942 0 1.022-4.243h2.516l-.117.5h-1.926l-.308 1.28h1.713l-.117.484h-1.7l-.37 1.483h2.068l-.117.5h-2.664Zm3.815 0h-.6l1.01-4.186a3.252 3.252 0 0 1 .547-.082c.197-.012.381-.018.543-.018a1.89 1.89 0 0 1 1.088.275.923.923 0 0 1 .4.808 1.329 1.329 0 0 1-.317.9 1.78 1.78 0 0 1-.889.524 6.697 6.697 0 0 1 .373.769c.068.165.139.331.2.5s.12.334.172.5h-.604a24.942 24.942 0 0 0-.365-.931 8.848 8.848 0 0 0-.367-.752h-.005c-.052 0-.1.007-.155.009h-.631l-.4 1.683Zm1.43-3.786a3.167 3.167 0 0 0-.53.027l-.388 1.6h.364a3.806 3.806 0 0 0 .517-.037 1.574 1.574 0 0 0 .483-.144.94.94 0 0 0 .356-.3.86.86 0 0 0 .14-.511.517.517 0 0 0-.261-.485 1.379 1.379 0 0 0-.681-.15Zm1.603 3.786 1.022-4.243h2.516l-.117.5h-1.926l-.308 1.28h1.713l-.117.484h-1.7l-.37 1.483h2.068l-.117.5h-2.664ZM8.2 16.322a8.16 8.16 0 1 1 8.2-8.16 8.19 8.19 0 0 1-8.2 8.16Zm-1.5-5.021c.252.068.486.128.716.184l-.368 1.466.9.223.373-1.485a6.49 6.49 0 0 0 1.176.128 1.88 1.88 0 0 0 2-1.337 1.566 1.566 0 0 0-.827-2.173 1.435 1.435 0 0 0 1.149-1.306c.14-.934-.433-1.589-1.8-2.059l.368-1.472-.9-.223-.364 1.429c-.2-.049-.42-.1-.721-.168l.361-1.443-.9-.223L7.5 4.313l-.1-.022a23.21 23.21 0 0 1-.48-.113l-1.24-.312-.24.957c.24.054.646.149.654.16a.478.478 0 0 1 .419.522l-.42 1.676h.016a.7.7 0 0 1 .079.027l-.073-.019-.022-.005L5.5 9.536a.332.332 0 0 1-.3.225.453.453 0 0 1-.107-.013c-.038 0-.649-.16-.654-.162l-.45 1.025 1.171.29q.228.057.45.115l.192.05-.373 1.488.9.224.37-1.471Zm1.957-.78a6.242 6.242 0 0 1-1.489-.253l-.174-.045.494-1.972.223.051c.566.127 1.618.362 1.966.926a.8.8 0 0 1 .088.635c-.113.438-.485.663-1.111.663Zm.4-2.93a4.883 4.883 0 0 1-1.2-.2l-.147-.038.448-1.788c.052.013.114.026.186.042.46.1 1.317.29 1.615.772a.756.756 0 0 1 .08.6c-.101.41-.432.617-.982.622Z" fill="#889099"/></svg>