<svg xmlns="http://www.w3.org/2000/svg" width="73.986" height="17.923"><g data-name="OK Pay" fill="#889099"><path data-name="Fill 1" d="M73.118 1.327h-1.129a2.114 2.114 0 0 0-1.675 1.077l-1.117 1.592-2.421 3.448-2.094-2.986c-.01-.015-.015-.029-.026-.044L63.24 2.408a2.126 2.126 0 0 0-1.681-1.076h-1.047c-.723 0-1.191.484-.772 1.074l1.421 2.01.01.012 4.046 5.712v6.467a1.317 1.317 0 0 0 1.314 1.315h.49a1.321 1.321 0 0 0 1.314-1.318v-6.47l4.31-6.084c.013-.017.031-.034.043-.053l1.127-1.6c.418-.586.025-1.07-.697-1.07"/><path data-name="Fill 3" d="m25.952 9.103 4.06-3.908 2.87-2.761c.515-.496-.037-1.107-.74-1.107h-1.544c-.7 0-1.058.406-1.57.9l-3.006 2.916-.007.008-1.933 1.876V4.9h-.009c0-.029.008-.056.008-.085V2.644a1.3 1.3 0 0 0-1.277-1.317h-.574a1.3 1.3 0 0 0-1.278 1.317v2.171c0 .029.006.056.008.085h-.008v11.7a1.3 1.3 0 0 0 1.278 1.317h.574a1.3 1.3 0 0 0 1.278-1.312v-5.241l2.755 2.835 2.715 2.793c.5.511.84.93 1.543.93h1.546a.788.788 0 0 0 .5-1.368l-7.189-7.451"/><path data-name="Fill 4" d="M61.942 17.927h-1.04a1.613 1.613 0 0 1-1.424-1.236l-.152-.408-.95-2.532-.065-.135-.086-.227h-6.424l-1.059 2.82h-.01l-.177.477c-.227.611-.561 1.236-1.32 1.236h-1.176a.909.909 0 0 1-.789-.36.9.9 0 0 1-.039-.862l.2-.49 5.25-13.044h.009l.245-.614a2.1 2.1 0 0 1 1.807-1.225h.524a2.107 2.107 0 0 1 1.813 1.223l.248.616 5.277 13.113h-.008l.171.422a.827.827 0 0 1-.825 1.226ZM55.002 5.77c-.095 0-.183.089-.249.252l-1.671 4.095a.412.412 0 0 0 .411.609h3.025a.412.412 0 0 0 .411-.609l-1.679-4.1c-.065-.157-.154-.247-.248-.247Z"/><path data-name="Fill 5" d="M39.84 17.927h-.524a1.331 1.331 0 0 1-1.341-1.322V2.645a1.331 1.331 0 0 1 1.341-1.318h4.259a7.079 7.079 0 0 1 4.578 1.3 4.164 4.164 0 0 1 1.207 1.634 5.708 5.708 0 0 1 .4 2.2 5.776 5.776 0 0 1-.4 2.217 4.142 4.142 0 0 1-1.208 1.634 7.087 7.087 0 0 1-4.577 1.3h-2.394v4.994a1.331 1.331 0 0 1-1.341 1.321Zm2.012-13.964a.666.666 0 0 0-.671.659v3.694a.666.666 0 0 0 .671.659h1.723a3.15 3.15 0 0 0 2.138-.648 1.98 1.98 0 0 0 .536-.773 3.028 3.028 0 0 0 .183-1.089 2.967 2.967 0 0 0-.183-1.078 1.967 1.967 0 0 0-.536-.772 3.145 3.145 0 0 0-2.138-.652Z"/><path data-name="Fill 6" d="M11.49 17.923h-.04a7.707 7.707 0 0 1-5.952-2.455 8.455 8.455 0 0 1-2.013-4.21l-.18-1.417v-.009a9.727 9.727 0 0 1-.015-1.366v-.074l.136-1.413a8.529 8.529 0 0 1 2.073-4.516A7.688 7.688 0 0 1 11.45 0h.04a7.661 7.661 0 0 1 5.934 2.463 9.323 9.323 0 0 1 2.219 6.5 9.326 9.326 0 0 1-2.219 6.493 7.661 7.661 0 0 1-5.934 2.467ZM7.923 4.343a6.07 6.07 0 0 0-1.17 2.7l-.158 1.38v.332c0 .2 0 .42.006.6 0 .2.007.367.013.446l.205 1.382a5.9 5.9 0 0 0 1.111 2.4A4.173 4.173 0 0 0 9.461 14.8a4.731 4.731 0 0 0 2.01.4 4.708 4.708 0 0 0 2.005-.4 4.145 4.145 0 0 0 1.525-1.22 7.246 7.246 0 0 0 1.337-4.616 7.262 7.262 0 0 0-1.337-4.625 4.126 4.126 0 0 0-1.527-1.219 4.707 4.707 0 0 0-2.005-.4 4.73 4.73 0 0 0-2.01.4 4.124 4.124 0 0 0-1.534 1.225Z"/><path data-name="Fill 8" d="M11.427 7.965H.655l1.013-1.991H12.44l-1.013 1.991"/><path data-name="Fill 9" d="M9.408 11.948H0l1.067-1.991h9.408l-1.067 1.991"/></g></svg>