<svg data-name="icon/comment" xmlns="http://www.w3.org/2000/svg" width="16" height="16"><g fill="none" stroke-miterlimit="10"><path d="M12.667 2.667H3.334a.7.7 0 0 0-.667.713v7.319a.637.637 0 0 0 .667.635h.667v1.584c0 .376.269.439.6.277l3.586-1.861h4.48a.637.637 0 0 0 .667-.635V3.38a.7.7 0 0 0-.667-.713Z"/><path d="M4.167 4.167v5.667H5.5v1.204l2.321-1.204h4.013V4.167H4.167m-.833-1.5h9.333c.367 0 .667.339.667.713v7.32c0 .375-.3.635-.667.635h-4.48l-3.585 1.86c-.332.163-.602.1-.602-.276v-1.584h-.666c-.367 0-.667-.26-.667-.635V3.38c0-.374.3-.713.667-.713Z" fill="#889099"/></g></svg>