<svg data-name="ilo/light/announcements" xmlns="http://www.w3.org/2000/svg" width="60" height="60"><g fill="none" stroke-miterlimit="10"><path d="M45.063 33.119v-7.684a15.143 15.143 0 0 0-9.533-14.062 19.764 19.764 0 0 0-5.821-1.143 17.124 17.124 0 0 0-5.558 1.143 14.91 14.91 0 0 0-9.533 14.072v7.674l-3.928 8.042a1.864 1.864 0 0 0 1.673 2.684h11.5v.185a5.973 5.973 0 0 0 11.947 0v-.182h11.508a1.864 1.864 0 0 0 1.673-2.684Z"/><path d="M29.836 48a3.978 3.978 0 0 0 3.973-3.973v-2.182H47.1l-4.036-8.264v-8.145c0-2.64-.783-5.188-2.264-7.373a13.094 13.094 0 0 0-5.987-4.823c-.786-.29-3.167-1.01-5.103-1.01-2.3 0-4.784.987-4.806.996l-.03.012a12.852 12.852 0 0 0-6.034 4.801 12.852 12.852 0 0 0-2.221 7.383v8.159l-4.036 8.264h13.28v2.182A3.978 3.978 0 0 0 29.836 48m0 2a5.973 5.973 0 0 1-5.974-5.973v-.182h-11.5a1.864 1.864 0 0 1-1.672-2.684l3.928-8.042v-7.674a14.91 14.91 0 0 1 9.533-14.072s2.817-1.143 5.558-1.143c2.741 0 5.82 1.143 5.82 1.143a15.143 15.143 0 0 1 9.534 14.062v7.684l3.928 8.042a1.864 1.864 0 0 1-1.673 2.684H35.81v.182A5.973 5.973 0 0 1 29.837 50Z" fill="#46b843"/></g><path data-name="Line Copy" d="M15.357 43.268h28.572" fill="none" stroke="#46b843" stroke-linecap="square" stroke-miterlimit="10" stroke-width="2"/></svg>