<svg data-name="ilo/light/announcements" xmlns="http://www.w3.org/2000/svg" width="60" height="60"><g transform="translate(9.5 10)" fill="none" stroke-miterlimit="10"><g data-name="Combined Shape"><path d="M34.46 40a1.3 1.3 0 0 1-1.275-1.265A32.412 32.412 0 0 0 2.135 7.641 1.3 1.3 0 0 1 .87 6.366V1.231A1.231 1.231 0 0 1 2.135 0a39.85 39.85 0 0 1 27 11.718 39.9 39.9 0 0 1 11.712 27.017A1.23 1.23 0 0 1 39.62 40Zm-13.615 0a1.331 1.331 0 0 1-1.292-1.26 18.656 18.656 0 0 0-5.447-12.025A18.616 18.616 0 0 0 2.125 21.26 1.328 1.328 0 0 1 .87 19.966v-5.133a1.213 1.213 0 0 1 1.255-1.222 26.266 26.266 0 0 1 17.387 7.717 26.361 26.361 0 0 1 7.718 17.407A1.216 1.216 0 0 1 26.012 40Z"/><path d="M38.815 38c-.49-9.383-4.411-18.187-11.095-24.868C21.044 6.449 12.247 2.526 2.87 2.033v3.641C20.156 6.678 34.157 20.7 35.152 38h3.663m-13.637 0a24.38 24.38 0 0 0-7.081-15.259c-4.11-4.116-9.489-6.61-15.227-7.078v3.652a20.68 20.68 0 0 1 12.651 5.988A20.71 20.71 0 0 1 21.498 38h3.68m14.442 2h-5.16c-.693 0-1.248-.574-1.276-1.265C32.54 21.89 18.957 8.293 2.134 7.641 1.443 7.613.87 7.056.87 6.366V1.23C.87.54 1.442-.023 2.135 0c10.522.332 20.03 4.74 27 11.717 6.967 6.965 11.382 16.49 11.712 27.017A1.23 1.23 0 0 1 39.62 40Zm-13.608 0h-5.167c-.69 0-1.248-.574-1.293-1.26-.302-4.547-2.21-8.797-5.447-12.025a18.616 18.616 0 0 0-11.98-5.455C1.437 21.213.87 20.656.87 19.966v-5.133c0-.692.567-1.252 1.255-1.222 6.777.317 12.89 3.212 17.387 7.717 4.51 4.513 7.393 10.63 7.718 17.407A1.216 1.216 0 0 1 26.012 40Z" fill="#46b843"/></g><circle data-name="Oval 3" cx="5.217" cy="5.217" r="5.217" transform="translate(0 29.565)" stroke="#46b843" stroke-width="2"/></g></svg>