<svg data-name="logo/pia-black" xmlns="http://www.w3.org/2000/svg" xmlns:xlink="http://www.w3.org/1999/xlink" width="168" height="23.806"><defs><linearGradient id="b" x1=".5" y1=".999" x2=".5" y2=".088" gradientUnits="objectBoundingBox"><stop offset="0" stop-color="#4cb649"/><stop offset="1" stop-color="#78b280"/></linearGradient><linearGradient id="a" x1="-.488" y1="-.665" x2=".565" y2=".577" gradientUnits="objectBoundingBox"><stop offset="0" stop-color="#23ff16"/><stop offset="1" stop-color="#189a33"/></linearGradient><linearGradient id="d" x1="1.743" y1="-1.16" x2=".243" y2=".843" xlink:href="#a"/><radialGradient id="c" cx=".511" cy=".552" r=".469" gradientUnits="objectBoundingBox"><stop offset="0"/><stop offset=".19" stop-color="#030303"/><stop offset=".324" stop-color="#0c0c0c"/><stop offset=".44" stop-color="#1c1c1c"/><stop offset=".546" stop-color="#323232"/><stop offset=".646" stop-color="#4e4e4e"/><stop offset=".74" stop-color="#717171"/><stop offset=".831" stop-color="#9a9a9a"/><stop offset=".916" stop-color="#c9c9c9"/><stop offset=".998" stop-color="#fefefe"/><stop offset="1" stop-color="#fff"/></radialGradient></defs><g data-name="logo/pia-black-no-tagline"><g transform="translate(.626 .026)"><path d="M17.828 8.144h-.889v-.815A7.257 7.257 0 0 0 9.757 0a7.257 7.257 0 0 0-7.181 7.329v.816h-.888A1.7 1.7 0 0 0 0 9.867V16.6a1.726 1.726 0 0 0 .2 1.011 1.05 1.05 0 0 0 .919.322h1.427l.218 3.543v.04a1.089 1.089 0 0 0 .126.517.791.791 0 0 0 .741.392h3.63l1.885-2.052h1.408l1.823 2.116h3.255a1.337 1.337 0 0 0 .76-.139 1.214 1.214 0 0 0 .419-.922c.094-.714.115-2.668.158-3.493H18.4c.439 0 .726-.044.912-.25a1.433 1.433 0 0 0 .206-.955V9.868a1.706 1.706 0 0 0-1.69-1.724Z" fill="#349334"/><path data-name="Shape" d="M19.291 16.724c0 .441-.041.688-.148.8s-.315.176-.745.175h-1.641l-.005.109c-.04.777-.066 2.856-.162 3.584-.061.47-.181.669-.32.76a1.161 1.161 0 0 1-.637.1H12.48l-1.823-2.117H9.049l-1.885 2.054H3.631a.564.564 0 0 1-.546-.277.855.855 0 0 1-.1-.4v-.041l-.228-3.772H1.118c-.427 0-.63-.081-.739-.231a1.546 1.546 0 0 1-.154-.873V9.866a1.48 1.48 0 0 1 1.463-1.493h1.113V7.329a7.038 7.038 0 0 1 6.957-7.1 7.038 7.038 0 0 1 6.956 7.1v1.045h1.111a1.479 1.479 0 0 1 1.462 1.493v6.857Z" fill="#4cb649"/><path d="M3.015 17.514H16.53v.453H3.015Z" fill="#118011"/><path data-name="Shape" d="M2.791 17.677V8.99h.225v8.687Zm13.741 0V8.99h.225v8.687Z" fill="#118011"/><ellipse cx="4.84" cy=".91" rx="4.84" ry=".91" transform="translate(4.816 9.955)" fill="url(#b)"/><path data-name="Shape" d="M14.174 8.536V7.208a4.473 4.473 0 0 0-4.414-4.53 4.474 4.474 0 0 0-4.415 4.53v1.328Z" fill="#fff"/><path data-name="Rectangle-path" d="M0 0h3.935v.473H0Z" transform="translate(7.898 7.153)" fill="url(#c)"/><ellipse data-name="Oval" cx=".816" cy=".837" rx=".816" ry=".837" transform="translate(7.473 4.315)"/><ellipse data-name="Oval" cx=".816" cy=".837" rx=".816" ry=".837" transform="translate(10.38 4.315)"/><path data-name="Rectangle-path" fill="#fff" d="M8.174 13.584h2.962v2.271H8.174z"/><path data-name="Shape" d="M8.627 13.353a1.094 1.094 0 0 1 1.035-.827 1.1 1.1 0 0 1 1.035.827h.352a1.443 1.443 0 0 0-1.387-1.174 1.442 1.442 0 0 0-1.387 1.174Z" fill="#fff"/><path data-name="Shape" d="M18.622 18.161c.079 0 .152 0 .221-.006v-.254a2.89 2.89 0 0 1-.447.028H16.97c-.022.41-.037 1.098-.06 1.772h.232c.019-.6.034-1.178.053-1.54Z" fill="#118011"/><path data-name="Shape" d="M1.7.126V0c-.07 0-.143.006-.221.006H.053C.033.369.018.951 0 1.549h.33A1.4 1.4 0 0 0 1.7.126Z" transform="translate(17.143 18.154)" fill="url(#a)"/><path data-name="Shape" d="M2.546 17.929H1.118a1.761 1.761 0 0 1-.557-.071v.3a2.416 2.416 0 0 0 .3.011h1.425l.095 1.534h.275Z" fill="#118011"/><path data-name="Shape" d="M.3.015A2.565 2.565 0 0 1 0 0v.128A1.4 1.4 0 0 0 1.369 1.55h.449L1.724.015Z" transform="translate(.561 18.154)" fill="url(#d)"/></g><g data-name="Group 7" fill="#22252e"><path data-name="Shape" d="M23.292 18.859V8.168h1.864l.069.757a2.34 2.34 0 0 1 1.906-.9 2.525 2.525 0 0 1 2.161 1.056 4.851 4.851 0 0 1 .772 2.912v.107a4.717 4.717 0 0 1-.79 2.859 2.508 2.508 0 0 1-2.13 1.074 2.316 2.316 0 0 1-1.843-.814v3.64Zm12.46-8.756a5.353 5.353 0 0 0-.728-.057 1.464 1.464 0 0 0-1.5.792v5.052h-2V8.168h1.9l.055.92a1.858 1.858 0 0 1 1.675-1.063 2.059 2.059 0 0 1 .626.093Zm1.284 5.787V8.168h2.017v7.722Zm.191-8.949a1.027 1.027 0 0 1-.309-.771 1.029 1.029 0 0 1 .3-.763 1.119 1.119 0 0 1 .826-.3 1.121 1.121 0 0 1 .821.3 1.022 1.022 0 0 1 .306.764 1.026 1.026 0 0 1-.309.771 1.126 1.126 0 0 1-.817.3 1.123 1.123 0 0 1-.818-.301Zm6.513 6.427 1.4-5.2h2.1l-2.543 7.722h-1.919L40.24 8.168h2.1Zm4.916 2.007a2.135 2.135 0 0 1-.727-1.651 2.2 2.2 0 0 1 .886-1.888 4.291 4.291 0 0 1 2.563-.664h.925v-.443a1.3 1.3 0 0 0-.268-.856 1.041 1.041 0 0 0-.845-.321 1.18 1.18 0 0 0-.8.249.86.86 0 0 0-.288.685h-2.007a2.11 2.11 0 0 1 .4-1.242 2.671 2.671 0 0 1 1.141-.9 4.058 4.058 0 0 1 1.659-.32 3.231 3.231 0 0 1 2.208.717 2.541 2.541 0 0 1 .816 2.016v3.347a3.78 3.78 0 0 0 .3 1.663v.121h-2.031a2.339 2.339 0 0 1-.2-.693 2.4 2.4 0 0 1-1.9.835 2.627 2.627 0 0 1-1.832-.655Zm9.827-9.105v1.9h1.291v1.511h-1.291v3.854a.94.94 0 0 0 .16.614.789.789 0 0 0 .612.186 3.151 3.151 0 0 0 .591-.05v1.563a4.051 4.051 0 0 1-1.217.186 1.943 1.943 0 0 1-2.155-2.192V9.681h-1.1V8.17h1.1v-1.9Zm3.388 8.721a3.755 3.755 0 0 1-1.039-2.776v-.2a4.773 4.773 0 0 1 .438-2.08 3.276 3.276 0 0 1 1.241-1.409 3.415 3.415 0 0 1 1.832-.5 3.087 3.087 0 0 1 2.431 1 4.131 4.131 0 0 1 .886 2.833v.842h-4.79a1.934 1.934 0 0 0 .587 1.213 1.75 1.75 0 0 0 1.242.457 2.149 2.149 0 0 0 1.814-.863l.988 1.134a3.034 3.034 0 0 1-1.224 1.024 3.927 3.927 0 0 1-1.711.367 3.64 3.64 0 0 1-2.695-1.042Zm7.554.9V8.164h.835v7.722Zm.007-9.548a.57.57 0 0 1-.153-.404.583.583 0 0 1 .153-.408.538.538 0 0 1 .417-.167.55.55 0 0 1 .421.167.573.573 0 0 1 .156.408.559.559 0 0 1-.156.4.556.556 0 0 1-.421.164.543.543 0 0 1-.417-.16Zm4.094 1.825.028 1.321A3.03 3.03 0 0 1 74.611 8.4a2.687 2.687 0 0 1 1.398-.375 2.227 2.227 0 0 1 1.8.7 3.212 3.212 0 0 1 .6 2.1v5.065h-.829v-5.075a2.4 2.4 0 0 0-.427-1.541 1.652 1.652 0 0 0-1.346-.507 2.076 2.076 0 0 0-1.367.5 2.911 2.911 0 0 0-.88 1.338v5.284h-.827V8.168Zm8.537-1.977v1.977h1.558v.7h-1.558v5.15a1.643 1.643 0 0 0 .226.957.865.865 0 0 0 .757.316 5.041 5.041 0 0 0 .675-.071l.035.693a2.661 2.661 0 0 1-.89.12 1.466 1.466 0 0 1-1.244-.51 2.449 2.449 0 0 1-.389-1.5V8.867h-1.387v-.7h1.384V6.191Zm4.675 9.357a3.276 3.276 0 0 1-1.206-1.353 4.313 4.313 0 0 1-.431-1.945v-.307a4.641 4.641 0 0 1 .421-2.005 3.421 3.421 0 0 1 1.171-1.403 2.836 2.836 0 0 1 1.627-.51 2.687 2.687 0 0 1 2.174.96 3.963 3.963 0 0 1 .8 2.623v.478h-5.366v.164a3.288 3.288 0 0 0 .734 2.187 2.309 2.309 0 0 0 1.846.875 2.659 2.659 0 0 0 1.179-.25 2.625 2.625 0 0 0 .928-.8l.522.406a3.015 3.015 0 0 1-2.664 1.365 3.208 3.208 0 0 1-1.735-.485Zm9.87-6.652a3.064 3.064 0 0 0-.563-.05 2 2 0 0 0-1.315.446 2.452 2.452 0 0 0-.768 1.3v5.3h-.832V8.168h.813l.014 1.227a2.21 2.21 0 0 1 2.121-1.37 1.341 1.341 0 0 1 .552.093Zm2.32-.728.028 1.321a3.03 3.03 0 0 1 1.057-1.089 2.687 2.687 0 0 1 1.398-.375 2.227 2.227 0 0 1 1.8.7 3.212 3.212 0 0 1 .6 2.1v5.065h-.829v-5.075a2.4 2.4 0 0 0-.427-1.541 1.652 1.652 0 0 0-1.346-.507 2.076 2.076 0 0 0-1.367.5 2.911 2.911 0 0 0-.88 1.338v5.284h-.827V8.168Zm8.423 7.38a3.276 3.276 0 0 1-1.206-1.353 4.313 4.313 0 0 1-.431-1.945v-.307a4.641 4.641 0 0 1 .421-2.005 3.421 3.421 0 0 1 1.171-1.403 2.836 2.836 0 0 1 1.627-.51 2.687 2.687 0 0 1 2.174.96 3.963 3.963 0 0 1 .8 2.623v.478h-5.366v.164a3.288 3.288 0 0 0 .734 2.187 2.309 2.309 0 0 0 1.846.875 2.659 2.659 0 0 0 1.179-.25 2.625 2.625 0 0 0 .928-.8l.522.406a3.014 3.014 0 0 1-2.664 1.365 3.208 3.208 0 0 1-1.735-.485Zm7.686-9.357v1.977h1.558v.7h-1.558v5.15a1.643 1.643 0 0 0 .226.957.865.865 0 0 0 .757.316 5.041 5.041 0 0 0 .675-.071l.035.693a2.661 2.661 0 0 1-.89.12 1.466 1.466 0 0 1-1.244-.51 2.449 2.449 0 0 1-.389-1.5V8.867h-1.387v-.7h1.384V6.191Zm3.777 9.221a2.048 2.048 0 0 1-.671-1.57 2.082 2.082 0 0 1 .915-1.784 4.309 4.309 0 0 1 2.549-.657h1.509v-.874a1.717 1.717 0 0 0-.5-1.3 2.023 2.023 0 0 0-1.448-.48 2.226 2.226 0 0 0-1.44.457 1.366 1.366 0 0 0-.571 1.1l-.834-.008a2 2 0 0 1 .835-1.594 3.156 3.156 0 0 1 2.052-.675 2.88 2.88 0 0 1 1.985.646 2.348 2.348 0 0 1 .747 1.8v3.654a4.641 4.641 0 0 0 .23 1.678v.085h-.89a4.138 4.138 0 0 1-.16-1.077 2.912 2.912 0 0 1-1.116.9 3.342 3.342 0 0 1-1.435.317 2.482 2.482 0 0 1-1.757-.618Zm10.342-.1a2.161 2.161 0 0 0 1.457-.5 1.788 1.788 0 0 0 .637-1.3h.8a2.459 2.459 0 0 1-.431 1.288 2.721 2.721 0 0 1-1.053.91 3.112 3.112 0 0 1-1.408.328 2.873 2.873 0 0 1-2.348-1.061 4.344 4.344 0 0 1-.866-2.841v-.257a4.937 4.937 0 0 1 .389-2.019 3.057 3.057 0 0 1 1.116-1.356 3.02 3.02 0 0 1 1.7-.478 2.859 2.859 0 0 1 2.041.756 2.79 2.79 0 0 1 .854 1.992h-.8a2.126 2.126 0 0 0-.637-1.463 2.032 2.032 0 0 0-1.463-.557 2.056 2.056 0 0 0-1.749.835 3.854 3.854 0 0 0-.618 2.337v.25a3.768 3.768 0 0 0 .622 2.305 2.072 2.072 0 0 0 1.757.831Zm7.55 0a2.161 2.161 0 0 0 1.457-.5 1.788 1.788 0 0 0 .637-1.3h.8a2.459 2.459 0 0 1-.431 1.288 2.721 2.721 0 0 1-1.053.91 3.112 3.112 0 0 1-1.408.328 2.873 2.873 0 0 1-2.348-1.061 4.344 4.344 0 0 1-.866-2.841v-.257a4.937 4.937 0 0 1 .389-2.019 3.057 3.057 0 0 1 1.116-1.356 3.02 3.02 0 0 1 1.7-.478 2.859 2.859 0 0 1 2.041.756 2.79 2.79 0 0 1 .854 1.992h-.8a2.126 2.126 0 0 0-.637-1.463 2.032 2.032 0 0 0-1.463-.557 2.056 2.056 0 0 0-1.749.835 3.854 3.854 0 0 0-.618 2.337v.25a3.768 3.768 0 0 0 .622 2.305 2.072 2.072 0 0 0 1.757.831Zm5.948.236a3.276 3.276 0 0 1-1.206-1.353 4.313 4.313 0 0 1-.431-1.945v-.307a4.641 4.641 0 0 1 .421-2.005 3.421 3.421 0 0 1 1.171-1.403 2.836 2.836 0 0 1 1.627-.51 2.687 2.687 0 0 1 2.174.96 3.963 3.963 0 0 1 .8 2.623v.478h-5.366v.164a3.288 3.288 0 0 0 .734 2.187 2.309 2.309 0 0 0 1.846.875 2.659 2.659 0 0 0 1.179-.25 2.625 2.625 0 0 0 .928-.8l.522.406a3.014 3.014 0 0 1-2.664 1.365 3.208 3.208 0 0 1-1.735-.485Zm10.899-1.622a1.229 1.229 0 0 0-.5-1.021 3.775 3.775 0 0 0-1.5-.6 6.618 6.618 0 0 1-1.555-.5 2.082 2.082 0 0 1-.82-.688 1.753 1.753 0 0 1-.268-.985 1.855 1.855 0 0 1 .748-1.506 2.952 2.952 0 0 1 1.907-.6 3.044 3.044 0 0 1 2.02.639 2.073 2.073 0 0 1 .762 1.667h-.836a1.4 1.4 0 0 0-.553-1.128 2.137 2.137 0 0 0-1.393-.45 2.131 2.131 0 0 0-1.319.372 1.165 1.165 0 0 0-.5.974 1.063 1.063 0 0 0 .414.9 4.308 4.308 0 0 0 1.509.582 6.973 6.973 0 0 1 1.641.564 2.144 2.144 0 0 1 .81.721 1.883 1.883 0 0 1 .267 1.019 1.866 1.866 0 0 1-.768 1.563 3.22 3.22 0 0 1-2.006.585 3.313 3.313 0 0 1-2.131-.652 2.027 2.027 0 0 1-.817-1.656h.835a1.5 1.5 0 0 0 .615 1.171 2.469 2.469 0 0 0 1.5.417 2.323 2.323 0 0 0 1.4-.393 1.193 1.193 0 0 0 .538-.995Zm7.424 0a1.229 1.229 0 0 0-.5-1.021 3.775 3.775 0 0 0-1.5-.6 6.618 6.618 0 0 1-1.555-.5 2.082 2.082 0 0 1-.82-.688 1.753 1.753 0 0 1-.268-.985 1.855 1.855 0 0 1 .748-1.506 2.952 2.952 0 0 1 1.907-.6 3.044 3.044 0 0 1 2.02.639 2.073 2.073 0 0 1 .762 1.667h-.836a1.4 1.4 0 0 0-.553-1.128 2.137 2.137 0 0 0-1.393-.45 2.131 2.131 0 0 0-1.319.372 1.165 1.165 0 0 0-.5.974 1.063 1.063 0 0 0 .414.9 4.308 4.308 0 0 0 1.509.582 6.973 6.973 0 0 1 1.641.564 2.144 2.144 0 0 1 .81.721 1.883 1.883 0 0 1 .267 1.019 1.866 1.866 0 0 1-.768 1.563 3.22 3.22 0 0 1-2.006.585 3.313 3.313 0 0 1-2.131-.652 2.027 2.027 0 0 1-.817-1.656h.835a1.5 1.5 0 0 0 .615 1.171 2.469 2.469 0 0 0 1.5.417 2.323 2.323 0 0 0 1.4-.393 1.191 1.191 0 0 0 .538-.995Zm3.987-6.827V4.835h.731a.851.851 0 0 1 .569.174.633.633 0 0 1 .2.506.62.62 0 0 1-.111.369.664.664 0 0 1-.31.235l.519.961v.018h-.309l-.478-.915h-.519v.916Z"/><path data-name="Shape" d="M163.333 6.001a2.366 2.366 0 0 1 2.332-2.394A2.365 2.365 0 0 1 167.997 6a2.366 2.366 0 0 1-2.332 2.394 2.365 2.365 0 0 1-2.332-2.393Z"/></g></g></svg>