<svg id="icon_comment" data-name="icon/comment" xmlns="http://www.w3.org/2000/svg" width="16" height="16" viewBox="0 0 16 16">
  <g id="Comment_2" transform="translate(2.667 2.667)" fill="none" stroke-miterlimit="10">
    <path d="M10,0H.667A.7.7,0,0,0,0,.713V8.032a.637.637,0,0,0,.667.635h.667v1.584c0,.376.269.439.6.277L5.52,8.667H10a.637.637,0,0,0,.667-.635V.713A.7.7,0,0,0,10,0Z" stroke="none"/>
    <path d="M 1.500003814697266 1.5 L 1.500003814697266 7.166670322418213 L 2.833333492279053 7.166670322418213 L 2.833333492279053 8.370990753173828 L 5.153963565826416 7.166670322418213 L 9.16666316986084 7.166670322418213 L 9.16666316986084 1.5 L 1.500003814697266 1.5 M 0.6666631698608398 0 L 10.00000381469727 0 C 10.36666393280029 0 10.66666316986084 0.3386707305908203 10.66666316986084 0.7133302688598633 L 10.66666316986084 8.032000541687012 C 10.66666316986084 8.406670570373535 10.36666393280029 8.666669845581055 10.00000381469727 8.666669845581055 L 5.520003318786621 8.666669845581055 L 1.934663772583008 10.52733039855957 C 1.602662086486816 10.69000053405762 1.333333015441895 10.62667083740234 1.333333015441895 10.25067043304443 L 1.333333015441895 8.666669845581055 L 0.6666631698608398 8.666669845581055 C 0.3000030517578125 8.666669845581055 3.814697265625e-06 8.406670570373535 3.814697265625e-06 8.032000541687012 L 3.814697265625e-06 0.7133302688598633 C 3.814697265625e-06 0.3386707305908203 0.3000030517578125 0 0.6666631698608398 0 Z" stroke="none" fill="#889099"/>
  </g>
</svg>
