<svg id="logo_pia-black" data-name="logo/pia-black" xmlns="http://www.w3.org/2000/svg" xmlns:xlink="http://www.w3.org/1999/xlink" width="168" height="23.806" viewBox="0 0 168 23.806">
  <defs>
    <linearGradient id="linear-gradient" x1="0.5" y1="0.999" x2="0.5" y2="0.088" gradientUnits="objectBoundingBox">
      <stop offset="0" stop-color="#4cb649"/>
      <stop offset="1" stop-color="#78b280"/>
    </linearGradient>
    <radialGradient id="radial-gradient" cx="0.511" cy="0.552" r="0.469" gradientUnits="objectBoundingBox">
      <stop offset="0"/>
      <stop offset="0.19" stop-color="#030303"/>
      <stop offset="0.324" stop-color="#0c0c0c"/>
      <stop offset="0.44" stop-color="#1c1c1c"/>
      <stop offset="0.546" stop-color="#323232"/>
      <stop offset="0.646" stop-color="#4e4e4e"/>
      <stop offset="0.74" stop-color="#717171"/>
      <stop offset="0.831" stop-color="#9a9a9a"/>
      <stop offset="0.916" stop-color="#c9c9c9"/>
      <stop offset="0.998" stop-color="#fefefe"/>
      <stop offset="1" stop-color="#fff"/>
    </radialGradient>
    <linearGradient id="linear-gradient-2" x1="-0.488" y1="-0.665" x2="0.565" y2="0.577" gradientUnits="objectBoundingBox">
      <stop offset="0" stop-color="#23ff16"/>
      <stop offset="1" stop-color="#189a33"/>
    </linearGradient>
    <linearGradient id="linear-gradient-3" x1="1.743" y1="-1.16" x2="0.243" y2="0.843" xlink:href="#linear-gradient-2"/>
  </defs>
  <g id="logo_pia-black-no-tagline" data-name="logo/pia-black-no-tagline" transform="translate(0.626 0.026)">
    <g id="Group">
      <path id="Shape" d="M17.828,8.144h-.889V7.329A7.257,7.257,0,0,0,9.757,0,7.257,7.257,0,0,0,2.576,7.329v.816H1.688A1.7,1.7,0,0,0,0,9.867V16.6a1.726,1.726,0,0,0,.2,1.011,1.05,1.05,0,0,0,.919.322H2.546l.218,3.543c0,.008,0,.022,0,.04a1.089,1.089,0,0,0,.126.517.791.791,0,0,0,.741.392h3.63l1.885-2.052h1.408l1.823,2.116h3.255a1.337,1.337,0,0,0,.76-.139,1.214,1.214,0,0,0,.419-.922c.094-.714.115-2.668.158-3.493H18.4c.439,0,.726-.044.912-.25a1.433,1.433,0,0,0,.206-.955V9.868A1.706,1.706,0,0,0,17.828,8.144Z" fill="#349334"/>
      <path id="Shape-2" data-name="Shape" d="M19.066,16.495c0,.441-.041.688-.148.8s-.315.176-.745.175H16.532l-.005.109c-.04.777-.066,2.856-.162,3.584-.061.47-.181.669-.32.76a1.161,1.161,0,0,1-.637.1H12.255l-1.823-2.117H8.824L6.939,21.96H3.406a.564.564,0,0,1-.546-.277.855.855,0,0,1-.1-.4c0-.022,0-.032,0-.032v-.009L2.532,17.47H.893c-.427,0-.63-.081-.739-.231A1.546,1.546,0,0,1,0,16.366V9.637A1.48,1.48,0,0,1,1.463,8.144H2.576V7.1A7.038,7.038,0,0,1,9.533,0a7.038,7.038,0,0,1,6.956,7.1V8.145H17.6a1.479,1.479,0,0,1,1.462,1.493v6.857Z" transform="translate(0.225 0.229)" fill="#4cb649"/>
      <path id="Rectangle-path" d="M0,0H13.515V.453H0Z" transform="translate(3.015 17.514)" fill="#118011"/>
      <path id="Shape-3" data-name="Shape" d="M0,8.687V0H.225V8.687Z" transform="translate(2.791 8.99)" fill="#118011"/>
      <path id="Shape-4" data-name="Shape" d="M0,8.687V0H.225V8.687Z" transform="translate(16.532 8.99)" fill="#118011"/>
      <ellipse id="Oval" cx="4.84" cy="0.91" rx="4.84" ry="0.91" transform="translate(4.816 9.955)" fill="url(#linear-gradient)"/>
      <path id="Shape-5" data-name="Shape" d="M8.829,5.858V4.53A4.473,4.473,0,0,0,4.415,0,4.474,4.474,0,0,0,0,4.53V5.858Z" transform="translate(5.345 2.678)" fill="#fff"/>
      <path id="Rectangle-path-2" data-name="Rectangle-path" d="M0,0H3.935V.473H0Z" transform="translate(7.898 7.153)" fill="url(#radial-gradient)"/>
      <ellipse id="Oval-2" data-name="Oval" cx="0.816" cy="0.837" rx="0.816" ry="0.837" transform="translate(7.473 4.315)"/>
      <ellipse id="Oval-3" data-name="Oval" cx="0.816" cy="0.837" rx="0.816" ry="0.837" transform="translate(10.38 4.315)"/>
      <rect id="Rectangle-path-3" data-name="Rectangle-path" width="2.962" height="2.271" transform="translate(8.174 13.584)" fill="#fff"/>
      <path id="Shape-6" data-name="Shape" d="M.352,1.174A1.094,1.094,0,0,1,1.387.347a1.1,1.1,0,0,1,1.035.827h.352A1.443,1.443,0,0,0,1.387,0,1.442,1.442,0,0,0,0,1.174Z" transform="translate(8.275 12.179)" fill="#fff"/>
      <path id="Shape-7" data-name="Shape" d="M1.712.26c.079,0,.152,0,.221-.006V0a2.89,2.89,0,0,1-.447.028H.06C.038.438.023,1.126,0,1.8H.232C.251,1.2.266.622.285.26Z" transform="translate(16.91 17.901)" fill="#118011"/>
      <path id="Shape-8" data-name="Shape" d="M1.7.126V0c-.07,0-.143.006-.221.006H.053C.033.369.018.951,0,1.549H.33A1.4,1.4,0,0,0,1.7.126Z" transform="translate(17.143 18.154)" fill="url(#linear-gradient-2)"/>
      <path id="Shape-9" data-name="Shape" d="M1.985.071H.557A1.761,1.761,0,0,1,0,0V.3A2.416,2.416,0,0,0,.3.311H1.725L1.82,1.845h.275Z" transform="translate(0.561 17.858)" fill="#118011"/>
      <path id="Shape-10" data-name="Shape" d="M.3.015A2.565,2.565,0,0,1,0,0V.128A1.4,1.4,0,0,0,1.369,1.55h.449L1.724.015Z" transform="translate(0.561 18.154)" fill="url(#linear-gradient-3)"/>
    </g>
    <g id="Group_7" data-name="Group 7" transform="translate(22.666 3.581)">
      <path id="Shape-11" data-name="Shape" d="M0,10.834V.143H1.864L1.933.9A2.34,2.34,0,0,1,3.839,0,2.525,2.525,0,0,1,6,1.056a4.851,4.851,0,0,1,.772,2.912v.107h0a4.717,4.717,0,0,1-.79,2.859A2.508,2.508,0,0,1,3.852,8.008a2.316,2.316,0,0,1-1.843-.814v3.64Z" transform="translate(0 4.418)" fill="#22252e"/>
      <path id="Shape-12" data-name="Shape" d="M4.228,2.078A5.353,5.353,0,0,0,3.5,2.021a1.464,1.464,0,0,0-1.5.792V7.865H0V.143H1.9l.055.92A1.858,1.858,0,0,1,3.63,0a2.059,2.059,0,0,1,.626.093Z" transform="translate(8.232 4.418)" fill="#22252e"/>
      <path id="Shape-13" data-name="Shape" d="M.118,10.783V3.061H2.135v7.722ZM.309,1.834A1.027,1.027,0,0,1,0,1.063,1.029,1.029,0,0,1,.3.3,1.119,1.119,0,0,1,1.126,0a1.121,1.121,0,0,1,.821.3,1.022,1.022,0,0,1,.306.764,1.026,1.026,0,0,1-.309.771,1.126,1.126,0,0,1-.817.3A1.123,1.123,0,0,1,.309,1.834Z" transform="translate(13.626 1.5)" fill="#22252e"/>
      <path id="Shape-14" data-name="Shape" d="M3.5,5.2,4.9,0H7L4.457,7.722H2.538L0,0H2.1Z" transform="translate(16.948 4.561)" fill="#22252e"/>
      <path id="Shape-15" data-name="Shape" d="M.727,7.351A2.135,2.135,0,0,1,0,5.7,2.2,2.2,0,0,1,.886,3.812a4.291,4.291,0,0,1,2.563-.664h.925V2.705a1.3,1.3,0,0,0-.268-.856,1.041,1.041,0,0,0-.845-.321,1.18,1.18,0,0,0-.8.249.86.86,0,0,0-.288.685H.166a2.11,2.11,0,0,1,.4-1.242,2.671,2.671,0,0,1,1.141-.9A4.058,4.058,0,0,1,3.366,0,3.231,3.231,0,0,1,5.574.717,2.541,2.541,0,0,1,6.39,2.733V6.08a3.78,3.78,0,0,0,.3,1.663v.121H4.659v0a2.339,2.339,0,0,1-.2-.693,2.4,2.4,0,0,1-1.9.835A2.627,2.627,0,0,1,.727,7.351Z" transform="translate(24.637 4.417)" fill="#22252e"/>
      <path id="Shape-16" data-name="Shape" d="M3.109,0V1.9H4.4V3.411H3.109V7.265a.94.94,0,0,0,.16.614.789.789,0,0,0,.612.186,3.151,3.151,0,0,0,.591-.05V9.578a4.051,4.051,0,0,1-1.217.186A1.943,1.943,0,0,1,1.1,7.572V3.411H0V1.9H1.1V0Z" transform="translate(32.082 2.663)" fill="#22252e"/>
      <path id="Shape-17" data-name="Shape" d="M1.039,6.965A3.755,3.755,0,0,1,0,4.189v-.2a4.773,4.773,0,0,1,.438-2.08A3.276,3.276,0,0,1,1.679.5,3.415,3.415,0,0,1,3.511,0,3.087,3.087,0,0,1,5.942,1a4.131,4.131,0,0,1,.886,2.833v.842H2.038a1.934,1.934,0,0,0,.587,1.213,1.75,1.75,0,0,0,1.242.457,2.149,2.149,0,0,0,1.814-.863l.988,1.134A3.034,3.034,0,0,1,5.445,7.64a3.927,3.927,0,0,1-1.711.367A3.64,3.64,0,0,1,1.039,6.965Z" transform="translate(37.54 4.419)" fill="#22252e"/>
      <path id="Shape-18" data-name="Shape" d="M.146,10.527V2.8H.981v7.722ZM.153.979A.57.57,0,0,1,0,.575.583.583,0,0,1,.153.167.538.538,0,0,1,.57,0,.55.55,0,0,1,.991.167a.573.573,0,0,1,.156.408.559.559,0,0,1-.156.4.556.556,0,0,1-.421.164A.543.543,0,0,1,.153.979Z" transform="translate(45.987 1.757)" fill="#22252e"/>
      <path id="Shape-19" data-name="Shape" d="M.793.143.821,1.464A3.03,3.03,0,0,1,1.878.375,2.687,2.687,0,0,1,3.276,0a2.227,2.227,0,0,1,1.8.7,3.212,3.212,0,0,1,.6,2.1V7.865H4.847V2.79A2.4,2.4,0,0,0,4.42,1.249,1.652,1.652,0,0,0,3.074.742a2.076,2.076,0,0,0-1.367.5,2.911,2.911,0,0,0-.88,1.338V7.864H0V.143Z" transform="translate(49.441 4.418)" fill="#22252e"/>
      <path id="Shape-20" data-name="Shape" d="M2.217,0V1.977H3.775v.7H2.217V7.827a1.643,1.643,0,0,0,.226.957A.865.865,0,0,0,3.2,9.1a5.041,5.041,0,0,0,.675-.071l.035.693a2.661,2.661,0,0,1-.89.12,1.466,1.466,0,0,1-1.244-.51,2.449,2.449,0,0,1-.389-1.5V2.676H0v-.7H1.384V0Z" transform="translate(56.554 2.584)" fill="#22252e"/>
      <path id="Shape-21" data-name="Shape" d="M1.637,7.523A3.276,3.276,0,0,1,.431,6.17,4.313,4.313,0,0,1,0,4.225V3.918A4.641,4.641,0,0,1,.421,1.913,3.421,3.421,0,0,1,1.592.51,2.836,2.836,0,0,1,3.219,0,2.687,2.687,0,0,1,5.393.96a3.963,3.963,0,0,1,.8,2.623v.478H.827v.164a3.288,3.288,0,0,0,.734,2.187,2.309,2.309,0,0,0,1.846.875,2.659,2.659,0,0,0,1.179-.25,2.625,2.625,0,0,0,.928-.8l.522.406A3.015,3.015,0,0,1,3.372,8.008,3.208,3.208,0,0,1,1.637,7.523Z" transform="translate(61.809 4.418)" fill="#22252e"/>
      <path id="Shape-22" data-name="Shape" d="M3.478.871a3.064,3.064,0,0,0-.563-.05A2,2,0,0,0,1.6,1.267a2.452,2.452,0,0,0-.768,1.3v5.3H0V.143H.813L.827,1.37A2.21,2.21,0,0,1,2.948,0,1.341,1.341,0,0,1,3.5.093Z" transform="translate(69.838 4.418)" fill="#22252e"/>
      <path id="Shape-23" data-name="Shape" d="M.793.143.821,1.464A3.03,3.03,0,0,1,1.878.375,2.687,2.687,0,0,1,3.276,0a2.227,2.227,0,0,1,1.8.7,3.212,3.212,0,0,1,.6,2.1V7.865H4.847V2.79A2.4,2.4,0,0,0,4.42,1.249,1.652,1.652,0,0,0,3.074.742a2.076,2.076,0,0,0-1.367.5,2.911,2.911,0,0,0-.88,1.338V7.864H0V.143Z" transform="translate(74.843 4.418)" fill="#22252e"/>
      <path id="Shape-24" data-name="Shape" d="M1.637,7.523A3.276,3.276,0,0,1,.431,6.17,4.313,4.313,0,0,1,0,4.225V3.918A4.641,4.641,0,0,1,.421,1.913,3.421,3.421,0,0,1,1.592.51,2.836,2.836,0,0,1,3.219,0,2.687,2.687,0,0,1,5.393.96a3.963,3.963,0,0,1,.8,2.623v.478H.827v.164a3.288,3.288,0,0,0,.734,2.187,2.309,2.309,0,0,0,1.846.875,2.659,2.659,0,0,0,1.179-.25,2.625,2.625,0,0,0,.928-.8l.522.406A3.014,3.014,0,0,1,3.372,8.008,3.208,3.208,0,0,1,1.637,7.523Z" transform="translate(82.422 4.418)" fill="#22252e"/>
      <path id="Shape-25" data-name="Shape" d="M2.217,0V1.977H3.775v.7H2.217V7.827a1.643,1.643,0,0,0,.226.957A.865.865,0,0,0,3.2,9.1a5.041,5.041,0,0,0,.675-.071l.035.693a2.661,2.661,0,0,1-.89.12,1.466,1.466,0,0,1-1.244-.51,2.449,2.449,0,0,1-.389-1.5V2.676H0v-.7H1.384V0Z" transform="translate(89.528 2.584)" fill="#22252e"/>
      <path id="Shape-26" data-name="Shape" d="M.671,7.385A2.048,2.048,0,0,1,0,5.815,2.082,2.082,0,0,1,.915,4.031a4.309,4.309,0,0,1,2.549-.657H4.973V2.5a1.717,1.717,0,0,0-.5-1.3A2.023,2.023,0,0,0,3.025.72a2.226,2.226,0,0,0-1.44.457,1.366,1.366,0,0,0-.571,1.1L.18,2.269A2,2,0,0,1,1.015.675,3.156,3.156,0,0,1,3.067,0,2.88,2.88,0,0,1,5.052.646a2.348,2.348,0,0,1,.747,1.8V6.1a4.641,4.641,0,0,0,.23,1.678v.085h-.89v0a4.138,4.138,0,0,1-.16-1.077,2.912,2.912,0,0,1-1.116.9,3.342,3.342,0,0,1-1.435.317A2.482,2.482,0,0,1,.671,7.385Z" transform="translate(94.851 4.42)" fill="#22252e"/>
      <path id="Shape-27" data-name="Shape" d="M3.212,7.286a2.161,2.161,0,0,0,1.457-.5,1.788,1.788,0,0,0,.637-1.3h.8a2.459,2.459,0,0,1-.431,1.288,2.721,2.721,0,0,1-1.053.91,3.112,3.112,0,0,1-1.408.328A2.873,2.873,0,0,1,.866,6.951,4.344,4.344,0,0,1,0,4.11V3.853A4.937,4.937,0,0,1,.389,1.834,3.057,3.057,0,0,1,1.505.478,3.02,3.02,0,0,1,3.205,0,2.859,2.859,0,0,1,5.246.756,2.79,2.79,0,0,1,6.1,2.748H5.3a2.126,2.126,0,0,0-.637-1.463A2.032,2.032,0,0,0,3.2.728a2.056,2.056,0,0,0-1.749.835A3.854,3.854,0,0,0,.833,3.9v.25a3.768,3.768,0,0,0,.622,2.305A2.072,2.072,0,0,0,3.212,7.286Z" transform="translate(102.652 4.419)" fill="#22252e"/>
      <path id="Shape-28" data-name="Shape" d="M3.212,7.286a2.161,2.161,0,0,0,1.457-.5,1.788,1.788,0,0,0,.637-1.3h.8a2.459,2.459,0,0,1-.431,1.288,2.721,2.721,0,0,1-1.053.91,3.112,3.112,0,0,1-1.408.328A2.873,2.873,0,0,1,.866,6.951,4.344,4.344,0,0,1,0,4.11V3.853A4.937,4.937,0,0,1,.389,1.834,3.057,3.057,0,0,1,1.505.478,3.02,3.02,0,0,1,3.205,0,2.859,2.859,0,0,1,5.246.756,2.79,2.79,0,0,1,6.1,2.748H5.3a2.126,2.126,0,0,0-.637-1.463A2.032,2.032,0,0,0,3.2.728a2.056,2.056,0,0,0-1.749.835A3.854,3.854,0,0,0,.833,3.9v.25a3.768,3.768,0,0,0,.622,2.305A2.072,2.072,0,0,0,3.212,7.286Z" transform="translate(110.202 4.419)" fill="#22252e"/>
      <path id="Shape-29" data-name="Shape" d="M1.637,7.523A3.276,3.276,0,0,1,.431,6.17,4.313,4.313,0,0,1,0,4.225V3.918A4.641,4.641,0,0,1,.421,1.913,3.421,3.421,0,0,1,1.592.51,2.836,2.836,0,0,1,3.219,0,2.687,2.687,0,0,1,5.393.96a3.963,3.963,0,0,1,.8,2.623v.478H.827v.164a3.288,3.288,0,0,0,.734,2.187,2.309,2.309,0,0,0,1.846.875,2.659,2.659,0,0,0,1.179-.25,2.625,2.625,0,0,0,.928-.8l.522.406A3.014,3.014,0,0,1,3.372,8.008,3.208,3.208,0,0,1,1.637,7.523Z" transform="translate(117.725 4.418)" fill="#22252e"/>
      <path id="Shape-30" data-name="Shape" d="M4.888,5.9a1.229,1.229,0,0,0-.5-1.021,3.775,3.775,0,0,0-1.5-.6,6.618,6.618,0,0,1-1.555-.5,2.082,2.082,0,0,1-.82-.688,1.753,1.753,0,0,1-.268-.985A1.855,1.855,0,0,1,.993.6,2.952,2.952,0,0,1,2.9,0a3.044,3.044,0,0,1,2.02.639,2.073,2.073,0,0,1,.762,1.667H4.846a1.4,1.4,0,0,0-.553-1.128A2.137,2.137,0,0,0,2.9.728,2.131,2.131,0,0,0,1.581,1.1a1.165,1.165,0,0,0-.5.974,1.063,1.063,0,0,0,.414.9,4.308,4.308,0,0,0,1.509.582,6.973,6.973,0,0,1,1.641.564,2.144,2.144,0,0,1,.81.721A1.883,1.883,0,0,1,5.722,5.86a1.866,1.866,0,0,1-.768,1.563,3.22,3.22,0,0,1-2.006.585A3.313,3.313,0,0,1,.817,7.356,2.027,2.027,0,0,1,0,5.7H.835A1.5,1.5,0,0,0,1.45,6.871a2.469,2.469,0,0,0,1.5.417,2.323,2.323,0,0,0,1.4-.393A1.193,1.193,0,0,0,4.888,5.9Z" transform="translate(125.373 4.419)" fill="#22252e"/>
      <path id="Shape-31" data-name="Shape" d="M4.888,5.9a1.229,1.229,0,0,0-.5-1.021,3.775,3.775,0,0,0-1.5-.6,6.618,6.618,0,0,1-1.555-.5,2.082,2.082,0,0,1-.82-.688,1.753,1.753,0,0,1-.268-.985A1.855,1.855,0,0,1,.993.6,2.952,2.952,0,0,1,2.9,0a3.044,3.044,0,0,1,2.02.639,2.073,2.073,0,0,1,.762,1.667H4.846a1.4,1.4,0,0,0-.553-1.128A2.137,2.137,0,0,0,2.9.728,2.131,2.131,0,0,0,1.581,1.1a1.165,1.165,0,0,0-.5.974,1.063,1.063,0,0,0,.414.9,4.308,4.308,0,0,0,1.509.582,6.973,6.973,0,0,1,1.641.564,2.144,2.144,0,0,1,.81.721A1.883,1.883,0,0,1,5.722,5.86a1.866,1.866,0,0,1-.768,1.563,3.22,3.22,0,0,1-2.006.585A3.313,3.313,0,0,1,.817,7.356,2.027,2.027,0,0,1,0,5.7H.835A1.5,1.5,0,0,0,1.45,6.871a2.469,2.469,0,0,0,1.5.417,2.323,2.323,0,0,0,1.4-.393A1.191,1.191,0,0,0,4.888,5.9Z" transform="translate(132.797 4.419)" fill="#22252e"/>
      <path id="Shape-32" data-name="Shape" d="M0,2.264V0H.731A.851.851,0,0,1,1.3.174.633.633,0,0,1,1.5.68a.62.62,0,0,1-.111.369.664.664,0,0,1-.31.235l.519.961v.018H1.289L.811,1.348H.292v.916Z" transform="translate(141.672 1.228)" fill="#22252e"/>
      <path id="Shape-33" data-name="Shape" d="M0,2.394A2.366,2.366,0,0,1,2.332,0,2.365,2.365,0,0,1,4.664,2.393,2.366,2.366,0,0,1,2.332,4.787,2.365,2.365,0,0,1,0,2.394Z" transform="translate(140.041)" fill="#22252e"/>
    </g>
  </g>
</svg>
