<svg xmlns="http://www.w3.org/2000/svg" width="34" height="22"><path d="M3.137 18.813A10.631 10.631 0 0 1 0 11a10.633 10.633 0 0 1 3.137-7.813A10.3 10.3 0 0 1 10.827 0a10.074 10.074 0 0 1 7.286 2.878l-2.934 2.879a5.9 5.9 0 0 0-4.351-1.645 6.537 6.537 0 0 0-4.757 2.057A7.158 7.158 0 0 0 4.047 11.1a6.8 6.8 0 0 0 2.024 4.935 6.537 6.537 0 0 0 4.756 2.057 6.982 6.982 0 0 0 4.048-1.234A5.14 5.14 0 0 0 17 13.364h-6.173v-3.8h10.22a11.443 11.443 0 0 1 .2 1.85c0 3.187-.911 5.757-2.934 7.608A9.979 9.979 0 0 1 10.827 22a10.3 10.3 0 0 1-7.69-3.187Zm24.691-2.878v-3.187h-3.137V9.561h3.136V6.374h3.137v3.187H34v3.187h-3.035v3.187Z" fill="#323642"/></svg>