<svg xmlns="http://www.w3.org/2000/svg" width="28" height="28"><path d="M26.271 0H2.247A2.1 2.1 0 0 0 0 1.9v24.146A2.149 2.149 0 0 0 2.247 28h24.024A1.717 1.717 0 0 0 28 26.046V1.9A1.671 1.671 0 0 0 26.271 0Z" fill="#323642"/><path d="M15.273 23.547h-4.208c0-.1.056-11.457 0-12.728h4.207v1.732a4.459 4.459 0 0 1 3.926-2.104 4.742 4.742 0 0 1 3.545 1.4 6.152 6.152 0 0 1 1.443 4.331v7.369h-4.459v-6.882c0-1.91-.713-2.879-2.118-2.879a2.37 2.37 0 0 0-2.189 1.548 2.754 2.754 0 0 0-.148 1.031v7.181Zm-7 0H4.455V10.819h3.817v12.726ZM6.58 8.91h-.028a2.161 2.161 0 0 1-2.354-2.15 2.2 2.2 0 0 1 2.409-2.174 2.188 2.188 0 0 1 2.382 2.161A2.2 2.2 0 0 1 6.58 8.91Z" fill="#fff"/></svg>