<svg xmlns="http://www.w3.org/2000/svg" width="29.995" height="29.993"><g data-name="2SL"><path d="M14.654 0A15 15 0 1 1 0 14.993 15 15 0 0 1 14.654 0Z" fill="#323642"/><path data-name="Shape" d="M13.432 25.612a12.151 12.151 0 0 1-5.065-1.7 7.7 7.7 0 0 1-3.121-3.441 5.733 5.733 0 0 1-.385-3.282.224.224 0 0 0-.115-.263 2.717 2.717 0 0 1-1.289-1.869 2.54 2.54 0 0 1 3.1-2.948 8.171 8.171 0 0 1 1.3.566.246.246 0 0 0 .29 0 11.417 11.417 0 0 1 4.12-1.732 11.669 11.669 0 0 1 2.514-.286c.167 0 .2-.089.239-.214q.676-2.157 1.358-4.312a.668.668 0 0 1 .926-.541c1.256.268 2.511.532 3.765.806a.3.3 0 0 0 .352-.113 2 2 0 0 1 3.244.274 1.965 1.965 0 0 1-1.452 2.883 2.015 2.015 0 0 1-2.251-1.464.385.385 0 0 0-.354-.32c-.968-.2-1.932-.411-2.9-.619-.076-.016-.155-.025-.252-.041-.4 1.258-.8 2.5-1.215 3.784l.666.069a11.453 11.453 0 0 1 5.239 1.828.181.181 0 0 0 .258-.018 2.554 2.554 0 0 1 2.817-.384 2.489 2.489 0 0 1 1.529 2.171 2.559 2.559 0 0 1-1.181 2.382.453.453 0 0 0-.216.506 5.9 5.9 0 0 1-1.5 4.844 10.325 10.325 0 0 1-5.732 3.208 13.539 13.539 0 0 1-2.981.333 13.722 13.722 0 0 1-1.708-.107Z" fill="#fff"/></g></svg>